<svg width="600" height="600" viewBox="0 0 600 600" fill="none" xmlns="http://www.w3.org/2000/svg">
<circle cx="299.5" cy="205.5" r="158.5" fill="black"/>
<path fill-rule="evenodd" clip-rule="evenodd" d="M187.847 359.39C176.946 362.423 166.454 364.921 156.413 367.312C115.333 377.092 81.8076 385.073 58.7988 420.506C58.6372 420.755 58.4805 421.003 58.3291 421.25C51.8613 429.429 48 439.764 48 451V505C48 531.51 69.4902 553 96 553H504C530.51 553 552 531.51 552 505V451C552 439.764 548.139 429.43 541.672 421.251C541.521 421.004 541.363 420.756 541.201 420.506C518.193 385.073 484.668 377.092 443.589 367.312C433.324 364.868 422.589 362.312 411.428 359.188C380.126 382.322 341.411 396 299.5 396C257.712 396 219.1 382.402 187.847 359.39Z" fill="black"/>
</svg>
