<svg width="195" height="188" viewBox="0 0 195 188" fill="none" xmlns="http://www.w3.org/2000/svg">
<g clip-path="url(#clip0_1345_730)">
<circle cx="58.5" cy="52.5" r="15.5" stroke="#4B4B4C" stroke-width="10"/>
<circle cx="136.5" cy="135.5" r="15.5" stroke="#4B4B4C" stroke-width="10"/>
<mask id="path-3-inside-1_1345_730" fill="white">
<path fill-rule="evenodd" clip-rule="evenodd" d="M31.0748 115.75H51.0956L25.5479 94L0.000106812 115.75L17.9047 115.75C23.4459 153.397 55.2111 182.513 94.0479 183.945V170.934C62.4025 169.54 36.4601 146.194 31.0748 115.75Z"/>
</mask>
<path fill-rule="evenodd" clip-rule="evenodd" d="M31.0748 115.75H51.0956L25.5479 94L0.000106812 115.75L17.9047 115.75C23.4459 153.397 55.2111 182.513 94.0479 183.945V170.934C62.4025 169.54 36.4601 146.194 31.0748 115.75Z" fill="#4B4B4C"/>
<path d="M51.0956 115.75V116.75H53.8128L51.7438 114.989L51.0956 115.75ZM31.0748 115.75V114.75H29.8823L30.09 115.924L31.0748 115.75ZM25.5479 94L26.1961 93.2386L25.5479 92.6867L24.8996 93.2386L25.5479 94ZM0.000106812 115.75L-0.648137 114.989L-2.71713 116.75H0.000106812V115.75ZM17.9047 115.75L18.894 115.604L18.7682 114.75H17.9047V115.75ZM94.0479 183.945L94.011 184.944L95.0479 184.982V183.945H94.0479ZM94.0479 170.934H95.0479V169.977L94.0919 169.935L94.0479 170.934ZM51.0956 114.75H31.0748V116.75H51.0956V114.75ZM24.8996 94.7614L50.4474 116.511L51.7438 114.989L26.1961 93.2386L24.8996 94.7614ZM0.648351 116.511L26.1961 94.7614L24.8996 93.2386L-0.648137 114.989L0.648351 116.511ZM17.9047 114.75L0.000106812 114.75V116.75L17.9047 116.75V114.75ZM16.9153 115.896C22.526 154.015 54.6873 183.494 94.011 184.944L94.0847 182.945C55.735 181.532 24.3658 152.78 18.894 115.604L16.9153 115.896ZM95.0479 183.945V170.934H93.0479V183.945H95.0479ZM94.0919 169.935C62.9207 168.561 37.3643 145.564 32.0595 115.576L30.09 115.924C35.556 146.823 61.8843 170.518 94.0038 171.933L94.0919 169.935Z" fill="#4B4B4C" mask="url(#path-3-inside-1_1345_730)"/>
<path d="M31.1453 18.3383C39.8673 23.846 51.4139 19.0633 53.6868 9.00132C54.8455 3.87162 62.1545 3.87162 63.3132 9.00132C65.5861 19.0633 77.1327 23.846 85.8547 18.3383C90.3013 15.5304 95.4696 20.6987 92.6617 25.1453C87.154 33.8673 91.9367 45.4139 101.999 47.6868C107.128 48.8455 107.128 56.1545 101.999 57.3132C91.9367 59.5861 87.154 71.1327 92.6617 79.8547C95.4696 84.3013 90.3013 89.4696 85.8547 86.6617C77.1327 81.154 65.5861 85.9367 63.3132 95.9987C62.1545 101.128 54.8455 101.128 53.6868 95.9987C51.4139 85.9367 39.8673 81.154 31.1453 86.6617C26.6987 89.4696 21.5304 84.3013 24.3383 79.8547C29.846 71.1327 25.0633 59.5861 15.0013 57.3132C9.87162 56.1545 9.87162 48.8455 15.0013 47.6868C25.0633 45.4139 29.846 33.8673 24.3383 25.1453C21.5304 20.6987 26.6987 15.5304 31.1453 18.3383Z" stroke="#4B4B4C" stroke-width="10"/>
<path d="M109.145 101.338C117.867 106.846 129.414 102.063 131.687 92.0013C132.845 86.8716 140.155 86.8716 141.313 92.0013C143.586 102.063 155.133 106.846 163.855 101.338C168.301 98.5304 173.47 103.699 170.662 108.145C165.154 116.867 169.937 128.414 179.999 130.687C185.128 131.845 185.128 139.155 179.999 140.313C169.937 142.586 165.154 154.133 170.662 162.855C173.47 167.301 168.301 172.47 163.855 169.662C155.133 164.154 143.586 168.937 141.313 178.999C140.155 184.128 132.845 184.128 131.687 178.999C129.414 168.937 117.867 164.154 109.145 169.662C104.699 172.47 99.5304 167.301 102.338 162.855C107.846 154.133 103.063 142.586 93.0013 140.313C87.8716 139.155 87.8716 131.845 93.0013 130.687C103.063 128.414 107.846 116.867 102.338 108.145C99.5304 103.699 104.699 98.5304 109.145 101.338Z" stroke="#4B4B4C" stroke-width="10"/>
<mask id="path-7-inside-2_1345_730" fill="white">
<path fill-rule="evenodd" clip-rule="evenodd" d="M163.973 72.1948H143.952L169.5 93.9448L195.048 72.1948H177.143C171.602 34.5475 139.837 5.43179 101 4V17.0107C132.645 18.4052 158.588 41.7512 163.973 72.1948Z"/>
</mask>
<path fill-rule="evenodd" clip-rule="evenodd" d="M163.973 72.1948H143.952L169.5 93.9448L195.048 72.1948H177.143C171.602 34.5475 139.837 5.43179 101 4V17.0107C132.645 18.4052 158.588 41.7512 163.973 72.1948Z" fill="#4B4B4C"/>
<path d="M143.952 72.1948V71.1948H141.235L143.304 72.9562L143.952 72.1948ZM163.973 72.1948V73.1948H165.166L164.958 72.0206L163.973 72.1948ZM169.5 93.9448L168.852 94.7062L169.5 95.2581L170.148 94.7062L169.5 93.9448ZM195.048 72.1948L195.696 72.9562L197.765 71.1948H195.048V72.1948ZM177.143 72.1948L176.154 72.3404L176.28 73.1948H177.143V72.1948ZM101 4L101.037 3.00068L100 2.96245V4H101ZM101 17.0107H100V17.9676L100.956 18.0098L101 17.0107ZM143.952 73.1948H163.973V71.1948H143.952V73.1948ZM170.148 93.1833L144.6 71.4333L143.304 72.9562L168.852 94.7062L170.148 93.1833ZM194.4 71.4333L168.852 93.1833L170.148 94.7062L195.696 72.9562L194.4 71.4333ZM177.143 73.1948H195.048V71.1948H177.143V73.1948ZM178.133 72.0491C172.522 33.9302 140.361 4.45042 101.037 3.00068L100.963 4.99932C139.313 6.41315 170.682 35.1648 176.154 72.3404L178.133 72.0491ZM100 4V17.0107H102V4H100ZM100.956 18.0098C132.127 19.3833 157.683 42.3807 162.988 72.369L164.958 72.0206C159.492 41.1217 133.163 17.427 101.044 16.0117L100.956 18.0098Z" fill="#4B4B4C" mask="url(#path-7-inside-2_1345_730)"/>
</g>
<defs>
<clipPath id="clip0_1345_730">
<rect width="195" height="188" fill="white"/>
</clipPath>
</defs>
</svg>
