<svg width="100" height="100" viewBox="0 0 100 100" fill="none" xmlns="http://www.w3.org/2000/svg">
<path d="M80.5 60C86.8513 60 92 55.0751 92 49C92 42.9249 86.8513 38 80.5 38C74.1487 38 69 42.9249 69 49C69 55.0751 74.1487 60 80.5 60Z" fill="black"/>
<path d="M19 60C25.0751 60 30 55.0751 30 49C30 42.9249 25.0751 38 19 38C12.9249 38 8 42.9249 8 49C8 55.0751 12.9249 60 19 60Z" fill="black"/>
<path d="M48.5 58C58.165 58 66 50.165 66 40.5C66 30.835 58.165 23 48.5 23C38.835 23 31 30.835 31 40.5C31 50.165 38.835 58 48.5 58Z" fill="black"/>
<path fill-rule="evenodd" clip-rule="evenodd" d="M78.9306 73.0431C78.9307 73.0337 78.9307 73.0243 78.9307 73.0149V66.5347C78.9307 65.1864 78.4671 63.9463 77.6906 62.9648C77.6725 62.9351 77.6535 62.9054 77.6341 62.8754C77.3214 62.394 76.9925 61.9549 76.6479 61.5529C77.8797 61.9406 79.1903 62.1496 80.5495 62.1496C83.446 62.1496 86.1217 61.2006 88.285 59.5954C89.0563 59.8122 89.7982 59.9895 90.5076 60.1591L90.5078 60.1591C93.3467 60.8377 95.6636 61.3915 97.2537 63.85C97.2649 63.8673 97.2758 63.8845 97.2862 63.9017C97.7332 64.4692 98 65.1862 98 65.9658V69.7126C98 71.552 96.5148 73.0431 94.6827 73.0431H78.9306Z" fill="black"/>
<path fill-rule="evenodd" clip-rule="evenodd" d="M20.4294 61.8788C20.1818 62.1895 19.9428 62.521 19.7125 62.8754C19.6931 62.9053 19.6743 62.935 19.6561 62.9647C18.8795 63.9462 18.4159 65.1864 18.4159 66.5347V72.933H4.31732C2.4852 72.933 1 71.4419 1 69.6025V65.8557C1 65.0761 1.26686 64.359 1.71385 63.7915C1.72432 63.7744 1.73515 63.7572 1.74631 63.7399C3.33645 61.2814 5.65336 60.7276 8.49238 60.049L8.49251 60.049L8.49441 60.0485C9.18777 59.8828 9.91225 59.7096 10.6649 59.4993C12.8249 61.096 15.4934 62.0395 18.3814 62.0395C19.0782 62.0395 19.7622 61.9846 20.4294 61.8788Z" fill="black"/>
<path fill-rule="evenodd" clip-rule="evenodd" d="M36.5386 57.0219C35.3273 57.3505 34.1616 57.6212 33.0459 57.8803C28.4814 58.9399 24.7564 59.8047 22.1999 63.644C22.1819 63.6709 22.1645 63.6978 22.1477 63.7246C21.429 64.6108 21 65.7306 21 66.9481V72.7991C21 75.6715 23.3878 78 26.3333 78H71.6667C74.6122 78 77 75.6715 77 72.7991V66.9481C77 65.7306 76.571 64.6109 75.8524 63.7247C75.8357 63.6979 75.8181 63.671 75.8001 63.644C73.2437 59.8047 69.5187 58.9399 64.9543 57.8803C63.8138 57.6154 62.621 57.3385 61.3809 57C57.9029 59.5066 53.6012 60.9887 48.9444 60.9887C44.3013 60.9887 40.0111 59.5153 36.5386 57.0219Z" fill="black"/>
</svg>
