<?xml version="1.0" encoding="UTF-8"?> <svg xmlns="http://www.w3.org/2000/svg" width="16" height="16" viewBox="0 0 16 16" fill="none"> <path fill-rule="evenodd" clip-rule="evenodd" d="M14.9297 14C15.6104 12.8233 16 11.4571 16 10C16 5.58172 12.4183 2 8 2C3.58172 2 0 5.58172 0 10C0 11.4571 0.389577 12.8233 1.07026 14H14.9297ZM9 4C9 4.55228 8.55229 5 8 5C7.44772 5 7 4.55228 7 4C7 3.44772 7.44772 3 8 3C8.55229 3 9 3.44772 9 4ZM12 7C12.5523 7 13 6.55228 13 6C13 5.44772 12.5523 5 12 5C11.4477 5 11 5.44772 11 6C11 6.55228 11.4477 7 12 7ZM5 6C5 6.55228 4.55228 7 4 7C3.44772 7 3 6.55228 3 6C3 5.44772 3.44772 5 4 5C4.55228 5 5 5.44772 5 6ZM2 10C2.55228 10 3 9.55228 3 9C3 8.44772 2.55228 8 2 8C1.44772 8 1 8.44772 1 9C1 9.55228 1.44772 10 2 10ZM15 9C15 9.55228 14.5523 10 14 10C13.4477 10 13 9.55228 13 9C13 8.44772 13.4477 8 14 8C14.5523 8 15 8.44772 15 9ZM10.6544 7.31393L9.76957 10.7006C9.91555 10.932 10 11.2061 10 11.4999C10 12.3283 9.32846 12.9999 8.50003 12.9999C7.6716 12.9999 7.00003 12.3283 7.00003 11.4999C7.00003 10.7404 7.56452 10.1127 8.29685 10.0135L10.6544 7.31393Z" fill="#767676"></path> </svg> 