<svg width="270" height="270" viewBox="0 0 270 270" fill="none" xmlns="http://www.w3.org/2000/svg">
<g clip-path="url(#clip0_16_4)">
<path fill-rule="evenodd" clip-rule="evenodd" d="M39.7514 10.5988C24.4247 10.5988 12 23.1341 12 38.5972V228.986C12 244.449 24.4247 256.984 39.7514 256.984H228.461C243.788 256.984 256.212 244.449 256.212 228.986V38.5972C256.212 23.1341 243.788 10.5988 228.461 10.5988H39.7514ZM209.035 46.0634C200.35 46.0634 193.309 53.1667 193.309 61.9291V230.852H224.761V61.9291C224.761 53.1667 217.72 46.0634 209.035 46.0634ZM143.357 143.124C143.357 133.846 150.812 126.325 160.008 126.325C169.204 126.325 176.658 133.846 176.658 143.124V230.852H143.357V143.124ZM111.905 94.5938C102.709 94.5938 95.2542 102.115 95.2542 111.393V230.852H128.556V111.393C128.556 102.115 121.101 94.5938 111.905 94.5938ZM49.0019 186.055C49.0019 177.808 55.6284 171.123 63.8026 171.123C71.9769 171.123 78.6034 177.808 78.6034 186.055V230.852H49.0019V186.055ZM60.1024 46.0634C50.9064 46.0634 43.4516 53.5845 43.4516 62.8624C43.4516 72.1402 50.9064 79.6614 60.1024 79.6614H61.9525C71.1485 79.6614 78.6034 72.1402 78.6034 62.8624C78.6034 53.5845 71.1485 46.0634 61.9525 46.0634H60.1024Z" fill="black"/>
<path d="M508.454 230.031C511.032 234.05 511.735 238.424 510.563 243.153C509.392 248.118 506.697 251.901 502.478 254.501C500.135 256.157 497.089 256.984 493.339 256.984C487.246 256.984 482.208 254.147 478.224 248.473L419.872 152.009H384.017V239.606C384.017 244.571 382.259 248.709 378.744 252.019C375.463 255.329 371.362 256.984 366.441 256.984C361.52 256.984 357.419 255.329 354.138 252.019C350.623 248.709 348.865 244.571 348.865 239.606V27.5285C348.865 22.7999 350.623 18.6623 354.138 15.1159C357.653 11.5694 361.871 9.79622 366.793 9.79622H441.314C459.828 9.79622 475.88 16.5345 489.472 30.011C503.533 43.724 510.798 60.3923 511.266 80.016C511.266 95.6204 506.462 109.688 496.854 122.219C487.48 134.513 474.943 143.498 459.242 149.172L508.454 230.031ZM439.908 116.544C449.985 116.544 458.539 112.998 465.569 105.905C472.365 99.0486 475.997 90.5371 476.466 80.3706C475.997 70.4406 472.365 62.0473 465.569 55.1908C459.007 48.5708 450.454 45.2608 439.908 45.2608H384.017V116.544H439.908Z" fill="black"/>
<path d="M561.336 185.346C565.085 196.221 571.53 204.969 580.669 211.589C590.277 218.446 600.706 221.874 611.954 221.874C616.407 221.874 618.75 221.756 618.985 221.519L624.609 220.81L626.718 220.456L628.476 220.101C635.74 218.446 643.357 215.136 651.324 210.171C655.308 207.57 659.644 207.215 664.33 209.107C669.252 210.998 672.65 214.072 674.524 218.328C678.743 227.076 675.93 234.878 666.088 241.734C654.371 248.591 644.06 253.083 635.154 255.211L632.694 255.565L629.882 255.92L626.366 256.275L622.5 256.629L617.227 256.984H611.954C587.582 256.984 566.726 248.236 549.384 230.74C532.277 213.481 523.723 192.557 523.723 167.968C523.723 143.143 532.277 122.101 549.384 104.841C566.491 87.5818 587.348 78.9521 611.954 78.9521C635.623 78.9521 655.66 86.5178 672.064 101.649C690.811 118.672 700.185 140.779 700.185 167.968C700.185 172.224 698.545 176.361 695.264 180.381C691.28 183.691 687.062 185.346 682.609 185.346H561.336ZM662.924 150.236C659.409 138.414 652.613 129.312 642.536 122.928C633.866 117.017 623.672 114.062 611.954 114.062C600.706 114.062 590.277 117.49 580.669 124.347C571.53 130.967 565.085 139.596 561.336 150.236H662.924Z" fill="black"/>
<path d="M756.409 328.622C756.409 332.878 754.768 337.016 751.488 341.035C747.504 344.345 743.403 346 739.185 346C734.263 346 730.162 344.345 726.881 341.035C723.366 337.489 721.609 333.351 721.609 328.622V169.387C721.609 145.034 730.279 124.11 747.621 106.614C764.962 89.1186 785.702 80.3706 809.84 80.3706C834.211 80.3706 855.068 89.1186 872.41 106.614C889.517 123.874 898.071 144.798 898.071 169.387C898.071 194.212 889.517 215.254 872.41 232.514C855.303 249.773 834.446 258.403 809.84 258.403C790.155 258.403 772.344 252.374 756.409 240.316V328.622ZM756.409 169.741C756.409 184.4 761.682 197.049 772.227 207.688C782.538 218.091 795.076 223.293 809.84 223.293C824.603 223.293 837.258 217.973 847.803 207.334C858.115 196.931 863.27 184.282 863.27 169.387C863.27 155.201 858.115 142.552 847.803 131.44C837.258 120.8 824.603 115.481 809.84 115.481C795.076 115.481 782.538 120.682 772.227 131.085C761.682 141.724 756.409 154.492 756.409 169.387V169.741Z" fill="black"/>
<path d="M1069.12 230.74C1051.78 248.236 1030.92 256.984 1006.55 256.984C982.409 256.984 961.67 248.236 944.328 230.74C926.987 213.244 918.316 192.32 918.316 167.968C918.316 143.379 926.987 122.337 944.328 104.841C961.435 87.5818 982.175 78.9521 1006.55 78.9521C1031.15 78.9521 1052.01 87.5818 1069.12 104.841C1086.22 122.101 1094.78 143.143 1094.78 167.968C1094.78 192.557 1086.22 213.481 1069.12 230.74ZM1044.51 129.666C1033.5 119.263 1020.84 114.062 1006.55 114.062C991.783 114.062 979.246 119.263 968.934 129.666C958.389 140.306 953.116 153.073 953.116 167.968C953.116 182.627 958.389 195.276 968.934 205.915C979.246 216.554 991.783 221.874 1006.55 221.874C1021.31 221.874 1033.97 216.554 1044.51 205.915C1054.82 194.803 1059.98 182.154 1059.98 167.968C1059.98 153.546 1054.82 140.779 1044.51 129.666Z" fill="black"/>
<path d="M1150.16 239.606C1150.16 243.862 1148.52 248 1145.24 252.019C1141.72 255.565 1137.62 257.339 1132.93 257.339C1128.01 257.339 1123.91 255.565 1120.63 252.019C1117.12 248.473 1115.36 244.335 1115.36 239.606V168.323C1115.36 143.734 1124.03 122.692 1141.37 105.196C1158.48 87.9364 1179.22 79.3067 1203.59 79.3067C1208.04 79.3067 1212.26 80.9617 1216.24 84.2717C1219.52 88.2911 1221.16 92.4286 1221.16 96.6843C1221.16 100.94 1219.52 105.078 1216.24 109.097C1212.73 112.643 1208.51 114.417 1203.59 114.417C1188.83 114.417 1176.29 119.618 1165.98 130.021C1155.43 140.66 1150.16 153.428 1150.16 168.323V239.606Z" fill="black"/>
<path d="M1344.42 79.3067C1348.88 79.3067 1353.09 80.9617 1357.08 84.2717C1360.36 88.2911 1362 92.4286 1362 96.6843C1362 100.94 1360.36 105.078 1357.08 109.097C1353.56 112.643 1349.35 114.417 1344.42 114.417H1319.47V239.606C1319.47 243.862 1317.83 248 1314.55 252.019C1311.03 255.565 1306.81 257.339 1301.89 257.339C1297.2 257.339 1293.1 255.565 1289.59 252.019C1286.31 248 1284.67 243.862 1284.67 239.606V114.417H1259.36C1254.67 114.417 1250.57 112.643 1247.05 109.097C1243.77 105.078 1242.13 100.94 1242.13 96.6843C1242.13 92.4286 1243.77 88.2911 1247.05 84.2717C1251.04 80.9617 1255.14 79.3067 1259.36 79.3067H1284.67V8.37763C1284.67 4.12189 1286.31 -0.0156469 1289.59 -4.03497C1293.57 -7.34499 1297.67 -9 1301.89 -9C1306.34 -9 1310.56 -7.34499 1314.55 -4.03497C1317.83 -0.0156469 1319.47 4.12189 1319.47 8.37763V79.3067H1344.42Z" fill="black"/>
</g>
<defs>
<clipPath id="clip0_16_4">
<rect width="270" height="270" fill="white"/>
</clipPath>
</defs>
</svg>
