<?xml version="1.0" encoding="UTF-8"?> <svg xmlns="http://www.w3.org/2000/svg" width="16" height="16" viewBox="0 0 16 16" fill="none"> <path fill-rule="evenodd" clip-rule="evenodd" d="M11.8708 13.9864C13.7469 12.7586 15 10.5369 15 8C15 5.4429 13.7268 3.20604 11.8259 1.9845L11.2263 4.06355L11.7263 4.22429L10.241 8.84417L10.2803 9.61823L8.14255 9.72683L7.91807 9.99557L9.02021 11.6693L10.5964 11.1323L11.8708 13.9864ZM6.70218 10.0664L7.98904 12.0207L7.45318 12.2032L11.7372 14.0715C10.784 14.6622 9.67865 15 8.5 15C4.91015 15 2 11.866 2 8C2 5.55491 3.16408 3.40262 4.92797 2.15081L5.26063 4.13891L4 4.20296L4.17271 7.6025L4 7.80927L6.27997 9.7137L6.28543 9.82118L6.40158 9.81528L6.70218 10.0664ZM7.90393 1.24344L5.5119 1.78188C6.40652 1.28227 7.42265 1 8.5 1C9.52682 1 10.498 1.25641 11.3614 1.71302L8.8113 2.80308L7.90393 1.24344Z" fill="#767676"></path> </svg> 