<?xml version="1.0" encoding="UTF-8"?> <svg xmlns="http://www.w3.org/2000/svg" width="16" height="16" viewBox="0 0 16 16" fill="none"> <path d="M11.2677 13.7967C10.4339 14.3898 9.47182 14.7777 8.45982 14.9287C7.44782 15.0798 6.41444 14.9899 5.44376 14.6662C4.47309 14.3425 3.59255 13.7942 2.87378 13.066C2.15501 12.3377 1.61832 11.4501 1.30739 10.4752C0.996448 9.5004 0.920044 8.46593 1.08439 7.45599C1.24874 6.44606 1.64919 5.48919 2.25317 4.66324C2.85715 3.83729 3.64758 3.16559 4.56017 2.70281C5.47275 2.24003 6.4817 1.99923 7.50493 2L7.5 8.5L11.2677 13.7967Z" fill="#767676"></path> <path d="M15 8.5C15 9.53888 14.751 10.5626 14.2738 11.4854C13.7967 12.4083 13.1053 13.2033 12.2576 13.8038L8.5 8.5H15Z" fill="#767676"></path> <path d="M15 7.5C15 6.64641 14.8319 5.80117 14.5052 5.01256C14.1786 4.22394 13.6998 3.50739 13.0962 2.90381C12.4926 2.30023 11.7761 1.82144 10.9874 1.49478C10.1988 1.16813 9.35359 1 8.5 1L8.5 7.5L15 7.5Z" fill="#767676"></path> </svg> 