<?xml version="1.0" encoding="UTF-8"?> <svg xmlns="http://www.w3.org/2000/svg" width="16" height="16" viewBox="0 0 16 16" fill="none"> <g clip-path="url(#clip0)"> <path d="M0.966927 14.75L7 4.95351L13.0331 14.75H0.966927Z" stroke="#767676"></path> <path fill-rule="evenodd" clip-rule="evenodd" d="M15 6C15 8.71198 12.8409 10.9197 10.1478 10.9979L10.7498 11.9536C13.7096 11.5846 16 9.05978 16 6C16 2.68629 13.3137 0 10 0C7.77916 0 5.84013 1.2066 4.8027 3H5.99964C6.91184 1.78555 8.36419 1 10 1C12.7614 1 15 3.23858 15 6ZM5.41605 8C5.4595 8.09945 5.50609 8.1972 5.55569 8.29315L4.95429 9.248C4.70425 8.86037 4.49767 8.44207 4.34142 8H5.41605Z" fill="#767676"></path> <path fill-rule="evenodd" clip-rule="evenodd" d="M8 3H3V8H5.74033L5.11049 9H3H2V8V3V2H3H8H9V3V8V9H8.88951L8 7.58771V3Z" fill="#767676"></path> </g> <defs> <clipPath id="clip0"> <rect width="16" height="16" fill="white"></rect> </clipPath> </defs> </svg> 