<?xml version="1.0" encoding="UTF-8"?> <svg xmlns="http://www.w3.org/2000/svg" width="16" height="16" viewBox="0 0 16 16" fill="none"> <path d="M4.4917 10H3.85596V5.78564L2.58105 6.25391V5.67969L4.39258 4.99951H4.4917V10ZM9.60498 10H6.34424V9.54541L8.06689 7.63135C8.3221 7.34196 8.49756 7.10726 8.59326 6.92725C8.69124 6.74495 8.74023 6.55697 8.74023 6.36328C8.74023 6.10352 8.66162 5.89046 8.50439 5.72412C8.34717 5.55778 8.13753 5.47461 7.87549 5.47461C7.56104 5.47461 7.31608 5.56462 7.14062 5.74463C6.96745 5.92236 6.88086 6.17074 6.88086 6.48975H6.24854C6.24854 6.03174 6.39551 5.66146 6.68945 5.37891C6.98568 5.09635 7.38102 4.95508 7.87549 4.95508C8.33805 4.95508 8.70378 5.07699 8.97266 5.3208C9.24154 5.56234 9.37598 5.88477 9.37598 6.28809C9.37598 6.77799 9.0638 7.36133 8.43945 8.03809L7.10645 9.48389H9.60498V10ZM11.1943 7.2041H11.6694C11.9679 7.19954 12.2026 7.12093 12.3735 6.96826C12.5444 6.81559 12.6299 6.60938 12.6299 6.34961C12.6299 5.76628 12.3394 5.47461 11.7583 5.47461C11.4849 5.47461 11.2661 5.55322 11.1021 5.71045C10.9403 5.8654 10.8594 6.07161 10.8594 6.3291H10.2271C10.2271 5.9349 10.3706 5.60791 10.6577 5.34814C10.9471 5.0861 11.314 4.95508 11.7583 4.95508C12.2277 4.95508 12.5957 5.07926 12.8623 5.32764C13.1289 5.57601 13.2622 5.92122 13.2622 6.36328C13.2622 6.57975 13.1916 6.78939 13.0503 6.99219C12.9113 7.19499 12.721 7.34652 12.4795 7.44678C12.7529 7.53337 12.9637 7.67692 13.1118 7.87744C13.2622 8.07796 13.3374 8.32292 13.3374 8.6123C13.3374 9.05892 13.1916 9.41325 12.8999 9.67529C12.6082 9.93734 12.2288 10.0684 11.7617 10.0684C11.2946 10.0684 10.9141 9.94189 10.6201 9.68896C10.3285 9.43604 10.1826 9.10221 10.1826 8.6875H10.8184C10.8184 8.94954 10.9038 9.15918 11.0747 9.31641C11.2456 9.47363 11.4746 9.55225 11.7617 9.55225C12.0671 9.55225 12.3006 9.47249 12.4624 9.31299C12.6242 9.15348 12.7051 8.92448 12.7051 8.62598C12.7051 8.33659 12.6162 8.11442 12.4385 7.95947C12.2607 7.80452 12.0044 7.72477 11.6694 7.72021H11.1943V7.2041Z" fill="#767676"></path> <rect x="0.5" y="1.5" width="15" height="11" stroke="#767676"></rect> <rect x="0.5" y="2.5" width="15" height="10" stroke="#767676"></rect> </svg> 