<?xml version="1.0" encoding="UTF-8"?> <svg xmlns="http://www.w3.org/2000/svg" width="16" height="16" viewBox="0 0 16 16" fill="none"> <g clip-path="url(#clip0_107:2)"> <path d="M1.88672 9.20703L1.99609 9.95703L2.15625 9.28125L3.28125 5.3125H3.91406L5.01172 9.28125L5.16797 9.96875L5.28906 9.20312L6.17188 5.3125H6.92578L5.54688 11H4.86328L3.69141 6.85547L3.60156 6.42188L3.51172 6.85547L2.29688 11H1.61328L0.238281 5.3125H0.988281L1.88672 9.20703ZM10.9766 8.37109H8.51172V10.3867H11.375V11H7.76172V5.3125H11.3359V5.92969H8.51172V7.75781H10.9766V8.37109ZM12.3086 11V5.3125H14.168C14.7852 5.3125 15.2487 5.4401 15.5586 5.69531C15.8711 5.95052 16.0273 6.32812 16.0273 6.82812C16.0273 7.09375 15.9518 7.32943 15.8008 7.53516C15.6497 7.73828 15.444 7.89583 15.1836 8.00781C15.4909 8.09375 15.7331 8.25781 15.9102 8.5C16.0898 8.73958 16.1797 9.02604 16.1797 9.35938C16.1797 9.86979 16.0143 10.2708 15.6836 10.5625C15.3529 10.8542 14.8854 11 14.2812 11H12.3086ZM13.0586 8.33984V10.3867H14.2969C14.6458 10.3867 14.9206 10.2969 15.1211 10.1172C15.3242 9.9349 15.4258 9.6849 15.4258 9.36719C15.4258 8.68229 15.0534 8.33984 14.3086 8.33984H13.0586ZM13.0586 7.73828H14.1914C14.5195 7.73828 14.7812 7.65625 14.9766 7.49219C15.1745 7.32812 15.2734 7.10547 15.2734 6.82422C15.2734 6.51172 15.1823 6.28516 15 6.14453C14.8177 6.0013 14.5404 5.92969 14.168 5.92969H13.0586V7.73828Z" fill="#767676"></path> </g> <defs> <clipPath id="clip0_107:2"> <rect width="16" height="16" fill="white"></rect> </clipPath> </defs> </svg> 